<svg width="32" height="32" viewBox="0 0 32 32" fill="none" xmlns="http://www.w3.org/2000/svg">
  <!-- Background circle with gradient -->
  <circle cx="16" cy="16" r="15" fill="url(#gradient)" stroke="url(#borderGradient)" stroke-width="1"/>
  
  <!-- Central hub circle -->
  <circle cx="16" cy="16" r="3" fill="#ffffff" stroke="#d97706" stroke-width="1"/>
  
  <!-- Connection lines radiating from center -->
  <g stroke="#d97706" stroke-width="1.5" opacity="0.8">
    <!-- Top -->
    <line x1="16" y1="13" x2="16" y2="4"/>
    <!-- Top-right -->
    <line x1="18.12" y1="13.88" x2="23.24" y2="8.76"/>
    <!-- Right -->
    <line x1="19" y1="16" x2="28" y2="16"/>
    <!-- Bottom-right -->
    <line x1="18.12" y1="18.12" x2="23.24" y2="23.24"/>
    <!-- Bottom -->
    <line x1="16" y1="19" x2="16" y2="28"/>
    <!-- Bottom-left -->
    <line x1="13.88" y1="18.12" x2="8.76" y2="23.24"/>
    <!-- Left -->
    <line x1="13" y1="16" x2="4" y2="16"/>
    <!-- Top-left -->
    <line x1="13.88" y1="13.88" x2="8.76" y2="8.76"/>
  </g>
  
  <!-- Endpoint circles representing different AI clients -->
  <g fill="#ffffff" stroke="#d97706" stroke-width="1">
    <!-- Top (Claude) -->
    <circle cx="16" cy="4" r="2.5"/>
    <!-- Top-right (Cursor) -->
    <circle cx="23.24" cy="8.76" r="2.5"/>
    <!-- Right (Gemini) -->
    <circle cx="28" cy="16" r="2.5"/>
    <!-- Bottom-right -->
    <circle cx="23.24" cy="23.24" r="2.5"/>
    <!-- Bottom -->
    <circle cx="16" cy="28" r="2.5"/>
    <!-- Bottom-left -->
    <circle cx="8.76" cy="23.24" r="2.5"/>
    <!-- Left -->
    <circle cx="4" cy="16" r="2.5"/>
    <!-- Top-left -->
    <circle cx="8.76" cy="8.76" r="2.5"/>
  </g>
  
  <!-- Small indicators in main endpoint circles -->
  <g fill="#d97706">
    <!-- Claude indicator -->
    <circle cx="16" cy="4" r="1"/>
    <!-- Cursor indicator -->
    <circle cx="23.24" cy="8.76" r="1"/>
    <!-- Gemini indicator -->
    <circle cx="28" cy="16" r="1"/>
  </g>
  
  <!-- Gradients -->
  <defs>
    <linearGradient id="gradient" x1="0%" y1="0%" x2="100%" y2="100%">
      <stop offset="0%" style="stop-color:#fef3c7;stop-opacity:0.9"/>
      <stop offset="50%" style="stop-color:#fed7aa;stop-opacity:0.8"/>
      <stop offset="100%" style="stop-color:#fdba74;stop-opacity:0.9"/>
    </linearGradient>
    <linearGradient id="borderGradient" x1="0%" y1="0%" x2="100%" y2="100%">
      <stop offset="0%" style="stop-color:#d97706;stop-opacity:0.6"/>
      <stop offset="100%" style="stop-color:#ea580c;stop-opacity:0.8"/>
    </linearGradient>
  </defs>
</svg>